<?xml version="1.0" encoding="UTF-8" standalone="no"?>
<!-- Created with Inkscape (http://www.inkscape.org/) -->

<svg
   xmlns:dc="http://purl.org/dc/elements/1.1/"
   xmlns:cc="http://creativecommons.org/ns#"
   xmlns:rdf="http://www.w3.org/1999/02/22-rdf-syntax-ns#"
   xmlns:svg="http://www.w3.org/2000/svg"
   xmlns="http://www.w3.org/2000/svg"
   xmlns:sodipodi="http://sodipodi.sourceforge.net/DTD/sodipodi-0.dtd"
   xmlns:inkscape="http://www.inkscape.org/namespaces/inkscape"
   version="1.1"
   id="svg9"
   xml:space="preserve"
   width="173.728"
   height="174.84546"
   viewBox="0 0 173.728 174.84546"
   sodipodi:docname="qyteraLogoBorder.svg"
   inkscape:version="0.91 r13725"><metadata
     id="metadata24"><rdf:RDF><cc:Work
         rdf:about=""><dc:format>image/svg+xml</dc:format><dc:type
           rdf:resource="http://purl.org/dc/dcmitype/StillImage" /><dc:title></dc:title></cc:Work></rdf:RDF></metadata><defs
     id="defs13"><clipPath
       clipPathUnits="userSpaceOnUse"
       id="clipPath23"><path
         d="m 0,153.071 391.181,0 L 391.181,0 0,0 Z"
         id="path21"
         inkscape:connector-curvature="0" /></clipPath></defs><sodipodi:namedview
     id="namedview11"
     pagecolor="#ffffff"
     bordercolor="#666666"
     borderopacity="1.0"
     inkscape:pageshadow="2"
     inkscape:pageopacity="0.0"
     inkscape:pagecheckerboard="0"
     showgrid="false"
     inkscape:zoom="1.6363909"
     inkscape:cx="86.265871"
     inkscape:cy="119.58034"
     inkscape:window-width="1920"
     inkscape:window-height="1137"
     inkscape:window-x="-8"
     inkscape:window-y="-8"
     inkscape:window-maximized="1"
     inkscape:current-layer="g15"
     fit-margin-top="0"
     fit-margin-left="0"
     fit-margin-right="0"
     fit-margin-bottom="0" /><g
     id="g15"
     inkscape:groupmode="layer"
     inkscape:label="Qytera-Logo-CMYK"
     transform="matrix(1.3333333,0,0,-1.3333333,-11.953066,188.89199)"
     style="display:inline"><path
       d="m 0,0 c 34.945,0 63.273,28.328 63.273,63.273 0,34.944 -28.328,63.272 -63.273,63.272 -34.944,0 -63.273,-28.328 -63.273,-63.272 C -63.273,28.328 -34.944,0 0,0"
       style="fill:#580e24;fill-opacity:1;fill-rule:nonzero;stroke:#ffffff;stroke-width:3.75;stroke-miterlimit:4;stroke-dasharray:none;stroke-opacity:1"
       id="path27"
       transform="translate(74.1128,13.248998)"
       inkscape:connector-curvature="0" /><path
       d="m 0,0 c 0,24.914 -20.42,45.111 -45.609,45.111 -25.189,0 -45.609,-20.197 -45.609,-45.111 0,-22.939 17.327,-41.838 39.735,-44.694 l 0,-22.734 11.688,0 0,22.724 C -17.358,-41.874 0,-22.961 0,0 m -12.223,-0.04 c 0,-16.819 -11.909,-30.768 -27.572,-33.597 l 0,18.427 -11.688,0 0,-18.427 c -15.664,2.829 -27.572,16.778 -27.572,33.597 0,18.862 14.961,34.152 33.416,34.152 18.455,0 33.416,-15.29 33.416,-34.152"
       style="fill:#ffffff;fill-opacity:1;fill-rule:nonzero;stroke:none"
       id="path51"
       transform="translate(119.7173,77.962899)"
       inkscape:connector-curvature="0" /></g></svg>