<?xml version="1.0" encoding="UTF-8" standalone="no"?>
<!-- Created with Inkscape (http://www.inkscape.org/) -->

<svg
   xmlns:dc="http://purl.org/dc/elements/1.1/"
   xmlns:cc="http://creativecommons.org/ns#"
   xmlns:rdf="http://www.w3.org/1999/02/22-rdf-syntax-ns#"
   xmlns:svg="http://www.w3.org/2000/svg"
   xmlns="http://www.w3.org/2000/svg"
   xmlns:sodipodi="http://sodipodi.sourceforge.net/DTD/sodipodi-0.dtd"
   xmlns:inkscape="http://www.inkscape.org/namespaces/inkscape"
   version="1.1"
   id="svg9"
   xml:space="preserve"
   width="172.34546"
   height="172.34546"
   viewBox="0 0 172.34546 172.34546"
   sodipodi:docname="qyteraIcon.svg"
   inkscape:version="0.91 r13725"
   inkscape:export-filename="C:\Users\Sebastian\Documents\Repositories\csvtuda.github.io\docs\assets\images\qyteraIcon.png"
   inkscape:export-xdpi="75.239998"
   inkscape:export-ydpi="75.239998"><metadata
     id="metadata24"><rdf:RDF><cc:Work
         rdf:about=""><dc:format>image/svg+xml</dc:format><dc:type
           rdf:resource="http://purl.org/dc/dcmitype/StillImage" /><dc:title /></cc:Work></rdf:RDF></metadata><defs
     id="defs13"><clipPath
       clipPathUnits="userSpaceOnUse"
       id="clipPath23"><path
         d="m 0,153.071 391.181,0 L 391.181,0 0,0 Z"
         id="path21"
         inkscape:connector-curvature="0" /></clipPath></defs><sodipodi:namedview
     id="namedview11"
     pagecolor="#ffffff"
     bordercolor="#666666"
     borderopacity="1.0"
     inkscape:pageshadow="2"
     inkscape:pageopacity="0.0"
     inkscape:pagecheckerboard="0"
     showgrid="false"
     inkscape:zoom="1.6363909"
     inkscape:cx="104.40178"
     inkscape:cy="129.38268"
     inkscape:window-width="1920"
     inkscape:window-height="1137"
     inkscape:window-x="-8"
     inkscape:window-y="-8"
     inkscape:window-maximized="1"
     inkscape:current-layer="g15"
     showguides="true"
     inkscape:guide-bbox="true" /><g
     inkscape:groupmode="layer"
     id="layer1"
     inkscape:label="BG"
     sodipodi:insensitive="true"
     style="display:inline"><g
       style="display:inline"
       id="g4152"
       transform="matrix(1.3333333,0,0,-1.3333333,-12.644335,186.39199)"><path
         transform="translate(74.1128,13.248998)"
         inkscape:connector-curvature="0"
         id="path27"
         style="fill:#580e24;fill-opacity:1;fill-rule:nonzero;stroke:none"
         d="m 0,0 c 34.945,0 63.273,28.328 63.273,63.273 0,34.944 -28.328,63.272 -63.273,63.272 -34.944,0 -63.273,-28.328 -63.273,-63.272 C -63.273,28.328 -34.944,0 0,0" /><path
         inkscape:connector-curvature="0"
         id="path51"
         style="fill:#ffffff;fill-opacity:1;fill-rule:nonzero;stroke:none"
         d="m 119.7218,77.962899 c 0,24.914001 -20.42,45.111001 -45.609,45.111001 -25.189,0 -45.609,-20.197 -45.609,-45.111001 0,-22.939 17.327,-41.838 39.735,-44.694 l 0,-22.734 11.688,0 0,22.724 c 22.437,2.83 39.795,21.743 39.795,44.704 m -12.223,-0.04 c 0,-16.819 -11.909,-30.768 -27.572,-33.597 l 0,18.427 -11.688,0 0,-18.427 c -15.664,2.829 -27.572,16.778 -27.572,33.597 0,18.862 14.961,34.152001 33.416,34.152001 18.455,0 33.416,-15.290001 33.416,-34.152001" /></g></g><g
     id="g15"
     inkscape:groupmode="layer"
     inkscape:label="Qytera-Logo-CMYK"
     transform="matrix(1.3333333,0,0,-1.3333333,-14.453066,186.39199)"
     style="display:inline"><path
       style="opacity:1;fill:#000000;fill-opacity:1;fill-rule:nonzero;stroke:none;stroke-width:2;stroke-linecap:butt;stroke-linejoin:miter;stroke-miterlimit:4;stroke-dasharray:none;stroke-dashoffset:0;stroke-opacity:1"
       d="m 78.443045,67.424088 c -0.889812,0 -1.88668,-0.355122 -2.990044,-1.066994 l -34.75547,-22.95703 c -2.099953,-1.316916 -3.15,-2.777048 -3.15,-4.378706 0,-1.530478 1.050047,-2.954566 3.15,-4.27149 L 74.066087,12.647136 c 0.07118,0 0.462371,-0.265914 1.174219,-0.799804 0.747439,-0.498294 1.334221,-0.819152 1.761325,-0.961524 0.462708,-0.142406 0.94312,-0.212696 1.441414,-0.212696 l 20.715808,0 c 0.854227,0.03554 1.832187,0.40788 2.935547,1.119726 l 34.75723,22.95703 c 2.09997,1.316924 3.15,2.741012 3.15,4.27149 0,1.601658 -1.05003,3.06179 -3.15,4.378706 L 103.48308,65.44831 c -0.0712,0 -0.48126,0.250532 -1.22871,0.748826 -0.71185,0.53389 -1.28148,0.871894 -1.70859,1.014256 -0.42711,0.142406 -0.888617,0.212696 -1.386927,0.212696 z"
       id="rect4223"
       inkscape:connector-curvature="0"
       sodipodi:nodetypes="sccsccccscccsccccss" /><path
       inkscape:connector-curvature="0"
       id="path4167"
       style="font-style:normal;font-variant:normal;font-weight:bold;font-stretch:normal;font-size:91.11663055px;line-height:125%;font-family:'CMU Typewriter Text';-inkscape-font-specification:'CMU Typewriter Text Bold';letter-spacing:0px;word-spacing:0px;fill:#ffffff;fill-opacity:1;stroke:none;stroke-width:1.5;stroke-linecap:butt;stroke-linejoin:miter;stroke-miterlimit:4;stroke-dasharray:none;stroke-opacity:1"
       d="m 46.085709,39.026114 q 0,2.002074 2.624942,3.648224 l 28.963343,19.130933 q 1.379207,0.889811 2.49147,0.889811 1.379207,0 2.40249,-1.023282 1.023282,-0.978792 1.023282,-2.44698 0,-0.622868 -0.222452,-1.201245 -0.222453,-0.533886 -0.622868,-0.934301 -0.400415,-0.400415 -0.756339,-0.667358 -0.311434,-0.266944 -0.889811,-0.667358 -0.578377,-0.355925 -0.667358,-0.444906 l -24.60327,-16.194557 0,-0.08898 24.60327,-16.328029 q 0.08898,0 0.711848,-0.400415 0.667359,-0.400415 0.934302,-0.667358 0.266943,-0.222453 0.711848,-0.667359 0.444906,-0.444905 0.622868,-1.023282 0.177962,-0.533887 0.177962,-1.156754 0,-1.290226 -0.978792,-2.357999 -0.934301,-1.023282 -2.44698,-1.023282 -0.622867,0 -1.201244,0.177962 -0.533887,0.177962 -1.468188,0.80083 -0.889811,0.667358 -0.978792,0.667358 L 48.710651,35.46687 q -2.624942,1.64615 -2.624942,3.559244 z" /><path
       inkscape:connector-curvature="0"
       id="path4169"
       style="font-style:normal;font-variant:normal;font-weight:bold;font-stretch:normal;font-size:91.11663055px;line-height:125%;font-family:'CMU Typewriter Text';-inkscape-font-specification:'CMU Typewriter Text Bold';letter-spacing:0px;word-spacing:0px;fill:#ffffff;fill-opacity:1;stroke:none;stroke-width:1.5;stroke-linecap:butt;stroke-linejoin:miter;stroke-miterlimit:4;stroke-dasharray:none;stroke-opacity:1"
       d="m 93.957533,18.782917 q 0,0.622867 0.22245,1.156754 0.22245,0.578377 0.62287,0.978792 0.40041,0.400415 0.71185,0.667358 0.35592,0.311434 0.9343,0.667358 0.57838,0.355925 0.66736,0.444906 l 24.603267,16.328029 0,0.08898 -24.603267,16.194557 q -0.089,0.08898 -0.57838,0.400415 -0.4894,0.355924 -0.71185,0.489396 -0.22245,0.133472 -0.71185,0.533886 -0.4449,0.400415 -0.62287,0.711849 -0.17796,0.355924 -0.35592,0.84532 -0.17796,0.489396 -0.17796,1.023283 0,1.468188 1.02328,2.402489 1.06777,0.978792 2.44698,0.978792 0.62287,0 1.15675,-0.177962 0.53389,-0.177962 1.423697,-0.84532 0.9343,-0.622868 1.02328,-0.622868 l 27.80659,-18.374594 q 2.62495,-1.64615 2.62495,-3.648224 0,-1.913094 -2.62495,-3.559244 L 99.874773,16.335936 q -1.37921,-0.889811 -2.44698,-0.934301 -1.37921,0 -2.44698,0.934301 -1.02328,0.978792 -1.02328,2.44698 z" /></g></svg>