<?xml version="1.0" encoding="utf-8"?>
<!-- Generator: Adobe Illustrator 19.0.0, SVG Export Plug-In . SVG Version: 6.00 Build 0)  -->
<svg version="1.1" id="layer" xmlns="http://www.w3.org/2000/svg" xmlns:xlink="http://www.w3.org/1999/xlink" x="0px" y="0px"
	 viewBox="-153 -46 652 652" style="enable-background:new -153 -46 652 652;" xml:space="preserve">
<style type="text/css">
	.st0{fill:#173647;}
	.st1{fill:#23D96C;}
</style>
<path class="st0" d="M223.2,333.7c0,0-4.8-0.6-6.8-0.6c-2.9,0-4.4,1-4.4,3.1c0,2.2,1.2,2.7,5.3,3.8c5,1.4,6.8,2.7,6.8,6.7
	c0.3,3.8-2.5,7.1-6.3,7.5c-0.5,0-1,0-1.6,0c-2.6-0.1-5.2-0.4-7.7-0.9l0.4-3.1c0,0,4.7,0.6,7.1,0.6c2.9,0,4.3-1.3,4.3-3.8
	c0-2-1.1-2.7-4.7-3.5c-5.1-1.3-7.3-2.9-7.3-7c0-4.8,3.1-6.7,7.9-6.7c2.5,0.1,5,0.4,7.5,0.8L223.2,333.7z M233.2,330.2h6.6l5.3,18.4
	l5.3-18.4h6.7v23.6h-3.9v-20.4H253l-5.9,19.4h-4l-5.9-19.4H237v20.4h-3.8V330.2z M316.3,330.2h17.2v3.4h-6.6v20.2H323v-20.2h-6.7
	L316.3,330.2z M350.1,330.2c4.7,0,7.2,1.8,7.2,6.1c0.3,2.2-0.8,4.3-2.8,5.3c2.3,0.8,3.7,3.1,3.4,5.5c0,4.8-2.9,6.7-7.5,6.7h-9.2
	v-23.6L350.1,330.2z M345,333.5v6.8h5.1c2.3,0,3.4-1.2,3.4-3.5s-1.2-3.3-3.5-3.3L345,333.5z M345,343.5v7h5.2c2.4,0,3.8-0.8,3.8-3.6
	c0-2.7-2-3.4-3.9-3.4H345z M367.4,330.2h14.9v3.3h-11.1v6.7h9v3.3h-9v6.9h11.1v3.4h-14.9V330.2z M396,330.2h7.6l5.9,23.6h-3.9
	l-1.7-6.9h-8.1l-1.7,6.9h-3.8L396,330.2z M396.5,343.5h6.6l-2.4-10.1h-1.7L396.5,343.5z M421.8,346.8v7H418v-23.6h9
	c4-0.4,7.6,2.5,8,6.5c0.1,0.6,0,1.1,0,1.7c0.3,3-1.2,6-3.9,7.5l3.9,7.9h-4.2l-3.4-7L421.8,346.8z M426.9,333.5h-5.1v10h5.2
	c2.9,0,4-2.6,4-5C431,335.7,429.7,333.5,426.9,333.5L426.9,333.5z M271.2,330.2h7.6l5.9,23.6h-3.9l-1.7-6.9h-8.1l-1.7,6.9h-3.8
	L271.2,330.2z M271.7,343.5h6.6l-2.4-10.1h-1.7L271.7,343.5z M297,346.8v7h-3.8v-23.6h9c4-0.4,7.6,2.5,8,6.5c0.1,0.6,0,1.1,0,1.7
	c0.3,3-1.2,6-3.9,7.5l3.9,7.9H306l-3.4-7L297,346.8z M302.1,333.5H297v10h5.2c2.9,0,4-2.6,4-5C306.2,335.7,304.9,333.5,302.1,333.5
	L302.1,333.5z M47.1,349.2c0.1,1.4-0.6,2.7-1.7,3.6c-1.3,0.9-2.9,1.4-4.5,1.3c-1.6,0.1-3.2-0.2-4.7-0.8v-1.9c1.5,0.6,3.2,1,4.8,1
	c1.1,0.1,2.1-0.2,3-0.8c0.7-0.5,1.1-1.3,1-2.1c0-0.5-0.1-1-0.4-1.5c-0.3-0.4-0.7-0.8-1.2-1.1c-0.8-0.4-1.7-0.8-2.6-1.1
	c-1.3-0.4-2.5-1.1-3.5-2.1c-0.7-0.9-1.1-2-1-3.1c0-1.2,0.5-2.4,1.5-3.2c1.2-0.8,2.6-1.3,4-1.2c1.6,0,3.3,0.3,4.8,0.9l-0.6,1.8
	c-1.3-0.6-2.7-0.9-4.2-0.9c-0.9-0.1-1.8,0.2-2.5,0.7c-0.6,0.4-0.9,1.2-0.9,1.9c0,0.5,0.1,1,0.3,1.5c0.3,0.4,0.7,0.8,1.1,1.1
	c0.8,0.4,1.6,0.8,2.4,1.1c1.4,0.4,2.7,1.1,3.8,2.1C46.7,347.1,47.1,348.1,47.1,349.2z M52.5,340.8v8.4c-0.1,0.9,0.2,1.7,0.7,2.4
	c0.6,0.6,1.4,0.9,2.3,0.8c1.1,0.1,2.2-0.3,3-1.1c0.7-1.1,1.1-2.4,0.9-3.6v-6.8h2v13h-1.6l-0.3-1.7h-0.1c-0.4,0.6-1,1.2-1.7,1.5
	c-0.8,0.4-1.6,0.5-2.4,0.5c-1.3,0.1-2.6-0.3-3.5-1.1c-0.9-1-1.3-2.3-1.2-3.6v-8.5L52.5,340.8z M71.8,354c-0.8,0-1.6-0.1-2.3-0.5
	c-0.7-0.3-1.3-0.8-1.8-1.4h-0.1c0.1,0.7,0.1,1.4,0.1,2.2v5.4h-2v-18.8h1.6l0.3,1.8h0.1c0.4-0.7,1.1-1.2,1.8-1.5
	c0.7-0.3,1.5-0.5,2.3-0.5c1.5-0.1,3,0.6,4,1.8c1.9,3,1.9,6.9,0,9.9C74.8,353.4,73.3,354.1,71.8,354z M71.5,342.2
	c-1.1-0.1-2.1,0.3-2.9,1.1c-0.7,1-1,2.3-0.9,3.5v0.4c-0.1,1.4,0.2,2.7,0.9,3.9c0.7,0.8,1.8,1.3,2.9,1.2c1.1,0,2.1-0.5,2.6-1.4
	c0.7-1.1,1-2.4,1-3.8c0.1-1.3-0.2-2.6-1-3.7C73.6,342.7,72.6,342.2,71.5,342.2z M87,354c-0.8,0-1.6-0.1-2.3-0.5
	c-0.7-0.3-1.3-0.8-1.8-1.4h-0.1c0.1,0.7,0.1,1.4,0.1,2.2v5.4h-2v-18.8h1.6l0.3,1.8H83c0.4-0.7,1.1-1.2,1.8-1.5
	c0.7-0.3,1.5-0.5,2.3-0.5c1.5-0.1,3,0.6,4,1.8c1.9,3,1.9,6.9,0,9.9C90,353.4,88.6,354.1,87,354z M86.8,342.2
	c-1.1-0.1-2.1,0.3-2.9,1.1c-0.7,1-1,2.3-0.9,3.5v0.4c-0.1,1.4,0.2,2.7,0.9,3.9c0.7,0.8,1.8,1.3,2.9,1.2c1.1,0,2.1-0.5,2.6-1.4
	c0.7-1.1,1-2.4,1-3.8c0.1-1.3-0.2-2.6-1-3.7C88.8,342.7,87.8,342.2,86.8,342.2L86.8,342.2z M107.5,347.3c0.1,1.8-0.5,3.6-1.6,5
	c-1.1,1.2-2.8,1.9-4.4,1.8c-1.1,0-2.2-0.3-3.1-0.8c-0.9-0.6-1.6-1.4-2.1-2.3c-0.5-1.1-0.8-2.3-0.7-3.6c-0.1-1.8,0.5-3.6,1.6-4.9
	c1.1-1.2,2.8-1.9,4.4-1.8c1.6-0.1,3.2,0.6,4.3,1.8C107.1,343.7,107.6,345.5,107.5,347.3z M97.6,347.3c-0.1,1.3,0.3,2.7,1,3.8
	c1.5,1.6,4,1.7,5.6,0.3c0.1-0.1,0.2-0.2,0.3-0.3c0.7-1.1,1.1-2.5,1-3.8c0.1-1.3-0.3-2.7-1-3.8c-0.7-0.9-1.8-1.4-3-1.3
	c-1.1-0.1-2.2,0.4-2.9,1.3C97.9,344.6,97.5,345.9,97.6,347.3L97.6,347.3z M117.3,340.6c0.5,0,1,0,1.6,0.1l-0.3,1.8
	c-0.5-0.1-0.9-0.2-1.4-0.2c-1,0-2,0.5-2.7,1.3c-0.8,0.9-1.2,2-1.1,3.2v7h-2v-13h1.6l0.2,2.4h0.1c0.4-0.8,1-1.4,1.7-2
	C115.7,340.8,116.4,340.5,117.3,340.6z M126.9,352.4c0.3,0,0.7,0,1-0.1c0.3,0,0.5-0.1,0.8-0.2v1.5c-0.3,0.1-0.6,0.2-0.9,0.3
	c-0.4,0.1-0.7,0.1-1.1,0.1c-2.5,0-3.8-1.3-3.8-4v-7.7H121v-0.9l1.9-0.8l0.8-2.8h1.1v3h3.8v1.5h-3.8v7.6c0,0.6,0.2,1.3,0.6,1.8
	C125.7,352.2,126.3,352.4,126.9,352.4z M137,354c-1.7,0.1-3.3-0.5-4.5-1.8c-1.2-1.3-1.8-3.1-1.7-4.9c-0.1-1.8,0.5-3.6,1.5-5
	c1-1.2,2.6-1.9,4.2-1.8c1.5-0.1,2.9,0.5,3.9,1.6c1,1.2,1.5,2.7,1.4,4.2v1.2h-8.9c-0.1,1.3,0.4,2.5,1.2,3.5c0.8,0.8,1.9,1.3,3.1,1.2
	c1.4,0,2.8-0.3,4.1-0.9v1.8c-0.6,0.3-1.3,0.5-2,0.6C138.5,354,137.7,354,137,354z M136.4,342.2c-0.9,0-1.9,0.3-2.5,1
	c-0.7,0.8-1.1,1.8-1.1,2.8h6.8c0.1-1-0.2-2-0.8-2.8C138.2,342.5,137.3,342.1,136.4,342.2L136.4,342.2z M154.4,352h-0.1
	c-0.9,1.3-2.5,2.1-4.1,2c-1.5,0.1-3-0.6-4-1.7c-1-1.4-1.5-3.2-1.4-5c-0.1-1.8,0.4-3.5,1.4-5c1-1.2,2.4-1.9,4-1.8
	c1.6-0.1,3.1,0.6,4.1,1.9h0.2l-0.1-0.9l0-0.9v-5.3h2v18.4h-1.6L154.4,352z M150.5,352.4c1.1,0.1,2.2-0.3,2.9-1.1
	c0.7-1,1-2.3,0.9-3.5v-0.4c0.1-1.4-0.2-2.8-0.9-3.9c-0.7-0.8-1.8-1.3-2.9-1.2c-1.1-0.1-2.1,0.5-2.6,1.3c-0.7,1.1-1,2.5-0.9,3.8
	c-0.1,1.3,0.2,2.6,0.9,3.8C148.4,351.9,149.4,352.4,150.5,352.4L150.5,352.4z M173.8,340.6c1.5-0.1,3,0.6,4,1.7c1.9,3,1.9,6.9,0,9.9
	c-1,1.2-2.4,1.8-4,1.8c-0.8,0-1.6-0.1-2.3-0.5c-0.7-0.3-1.3-0.8-1.8-1.4h-0.1l-0.4,1.7h-1.4v-18.4h2v4.5c0,1,0,1.9-0.1,2.7h0.1
	C170.6,341.2,172.2,340.5,173.8,340.6z M173.5,342.2c-1.1-0.1-2.2,0.3-2.9,1.2c-1.2,2.5-1.2,5.3,0,7.8c0.7,0.8,1.8,1.3,2.9,1.2
	c1.1,0.1,2.1-0.4,2.7-1.3c0.7-1.2,1-2.5,0.9-3.8c0.1-1.3-0.2-2.6-0.9-3.8C175.6,342.6,174.5,342.1,173.5,342.2z M180.9,340.8h2.1
	l2.8,7.4c0.5,1.2,0.9,2.4,1.2,3.7h0.1c0.1-0.4,0.3-1.1,0.6-2.1c0.3-1,1.4-4,3.2-9h2.1l-5.6,14.8c-0.4,1.2-1,2.3-1.9,3.1
	c-0.8,0.6-1.7,0.9-2.7,0.9c-0.6,0-1.2-0.1-1.8-0.2v-1.6c0.5,0.1,1,0.1,1.5,0.1c1.4,0,2.6-0.9,2.9-2.3l0.7-1.8L180.9,340.8z
	 M71.2,237c-6.8-0.3-13.3,2.4-17.8,7.5c-4.6,5.8-6.9,13.1-6.5,20.5c-0.5,7.4,1.8,14.8,6.3,20.7c4.5,5,11.1,7.7,17.9,7.3
	c5.5-0.1,11-1,16.3-2.6v7c-5.6,1.9-11.6,2.8-17.5,2.7c-8.7,0.5-17.2-2.8-23.3-9.1c-5.5-6.1-8.2-14.8-8.2-26
	c-0.1-6.4,1.2-12.7,3.9-18.5c2.5-5.1,6.5-9.4,11.4-12.2c5.4-3,11.4-4.4,17.5-4.3c6.5-0.1,12.9,1.2,18.8,3.9l-3.4,6.8
	C81.8,238.3,76.5,237,71.2,237z M103.7,247.9v33.2c-0.3,3.4,0.8,6.7,2.8,9.3c2.4,2.2,5.6,3.4,8.9,3.1c4.4,0.4,8.7-1.2,11.7-4.4
	c2.8-4.2,4.2-9.3,3.7-14.3v-26.9h7.7v51.2h-6.4l-1.1-6.9h-0.4c-1.6,2.5-3.9,4.5-6.6,5.8c-3,1.4-6.3,2.1-9.6,2
	c-5.1,0.4-10.1-1.2-14-4.4c-3.4-3.9-5.1-9-4.6-14.2v-33.5L103.7,247.9z M172,300c-6.5,0.4-12.8-2.1-17.2-6.8
	c-4.4-5.5-6.5-12.4-6.1-19.4c-0.5-7.2,1.7-14.2,6.2-19.8c4.5-4.8,11-7.4,17.6-7c2.5,0,5,0.3,7.4,0.8c2,0.4,3.9,1,5.8,1.9l-2.4,6.6
	c-1.8-0.7-3.7-1.3-5.6-1.7c-1.8-0.4-3.5-0.6-5.4-0.7c-10.4,0-15.6,6.6-15.6,19.9c-0.3,5.1,1,10.2,3.8,14.5c2.7,3.4,6.9,5.3,11.3,5
	c4.5-0.1,9-1,13.1-2.8v6.9C180.9,299.3,176.5,300.2,172,300z M201.2,247.9v33.2c-0.3,3.4,0.8,6.7,2.8,9.3c2.4,2.2,5.6,3.4,8.9,3.1
	c4.4,0.4,8.7-1.2,11.7-4.4c2.8-4.2,4.2-9.3,3.7-14.3v-26.9h7.7v51.2h-6.4l-1.1-6.9h-0.4c-1.6,2.5-3.9,4.5-6.6,5.8
	c-3,1.4-6.3,2.1-9.6,2c-5.1,0.4-10.1-1.2-14-4.4c-3.4-3.9-5.1-9-4.6-14.2v-33.5L201.2,247.9z M313.9,299.1v-33.3
	c0.2-3.3-0.7-6.5-2.6-9.2c-2.1-2.2-5.1-3.3-8.1-3.1c-4-0.3-8,1.2-10.7,4.2c-2.6,3.7-3.8,8.3-3.5,12.8v28.6h-7.8v-33.3
	c0.2-3.3-0.7-6.5-2.6-9.2c-2.1-2.2-5.1-3.3-8.2-3.1c-4.1-0.3-8,1.3-10.7,4.4c-2.6,4.3-3.8,9.3-3.4,14.3v26.8h-7.8v-51.2h6.3l1.3,7
	h0.4c1.5-2.5,3.6-4.5,6.2-5.8c2.8-1.4,5.8-2.1,8.9-2.1c8,0,13.2,2.9,15.7,8.7h0.4c1.6-2.7,3.9-4.9,6.6-6.4c3.1-1.6,6.5-2.4,9.9-2.3
	c4.8-0.4,9.5,1.2,13,4.5c3.2,4,4.8,9.1,4.3,14.3v33.4L313.9,299.1z M357.7,247.1c6-0.3,11.8,2.2,15.7,6.9c7.5,12,7.4,27.1,0,39.1
	c-3.8,4.7-9.6,7.3-15.6,7c-3.1,0-6.2-0.6-9.1-1.8c-2.8-1.2-5.2-3.2-6.9-5.7h-0.6l-1.6,6.6h-5.6v-72.6h7.7v17.6c0,4-0.1,7.5-0.4,10.6
	h0.4C345.3,249.6,351.4,246.7,357.7,247.1z M356.6,253.6c-4.3-0.4-8.6,1.3-11.4,4.6c-2.3,3-3.5,8.1-3.5,15.3
	c0,7.2,1.2,12.3,3.6,15.4c2.9,3.3,7.2,5,11.5,4.6c4.2,0.3,8.3-1.7,10.6-5.2c2.6-4.5,3.8-9.7,3.5-15c0.4-5.2-0.9-10.4-3.5-14.9
	C364.9,255.1,360.8,253.3,356.6,253.6z M411,300c-6.7,0.3-13.2-2.2-17.9-6.9c-4.6-5.3-7-12.2-6.6-19.2c-0.4-7.1,1.8-14,6.1-19.7
	c4-4.8,10.1-7.5,16.4-7.3c5.8-0.3,11.3,2,15.2,6.3c3.9,4.7,5.9,10.6,5.6,16.7v4.9h-35.3c-0.2,5,1.4,9.8,4.6,13.7
	c3.2,3.2,7.6,5,12.2,4.7c5.6,0,11.2-1.2,16.3-3.5v6.9c-2.5,1.1-5.1,2-7.8,2.5C417,299.8,414,300.1,411,300z M408.9,253.5
	c-3.7-0.2-7.3,1.3-9.8,4c-2.6,3.1-4.1,7-4.3,11.1h26.8c0.3-4-0.9-8-3.3-11.2C415.9,254.7,412.5,253.3,408.9,253.5z M462.9,247
	c2.1,0,4.1,0.2,6.1,0.6l-1.1,7.2c-1.8-0.4-3.7-0.7-5.6-0.7c-4.1,0-8,1.8-10.6,5c-3,3.5-4.6,8-4.4,12.6v27.5h-7.7v-51.2h6.4l0.9,9.5
	h0.4c1.7-3.1,4-5.7,6.9-7.7C456.7,247.9,459.8,247,462.9,247z"/>
<path class="st1" d="M-30.1,204.6c-1.2-0.7-2.4-1.4-3.6-2c-1.3-0.6-2.5-1.2-3.9-1.7c-0.4-0.2-0.8-0.3-1.2-0.5
	c-1.1-0.4-2.3-0.9-3.5-1.2c-34-11.4-70.8,7-82.2,41c-11.4,34,7,70.8,41,82.2c2.7,0.9,5.6,1.7,8.4,2.2v18.6
	c39-5.9,73.6-36.7,76.2-77.2C2.7,241.6-9.5,216.7-30.1,204.6z"/>
<path class="st0" d="M-78.5,347.3v-19.8c-36.8-8.9-59.4-45.9-50.5-82.6c8.9-36.8,45.9-59.4,82.6-50.5c1.8,0.4,3.5,0.9,5.2,1.5
	c0.9,0.3,1.9,0.6,2.8,1l0.8,0.3c0.6,0.2,1,0.4,1.4,0.6c1.2,0.5,2.5,1,4,1.8c1.3,0.7,2.6,1.4,3.9,2.1c21.4,12.6,34.6,38.5,33,64.6
	c-2.6,40.1-35.9,74-79.2,80.5L-78.5,347.3z M-62.5,199.4L-62.5,199.4c-34-0.2-61.6,27.2-61.8,61.1c-0.1,29.6,20.9,55.1,49.9,60.6
	l2.8,0.6V339c38.1-7.4,66.9-37.7,69.2-73.3c1.5-23.5-10.4-46.9-29.5-58.1l0,0c-1.1-0.7-2.2-1.3-3.4-1.9c-1.4-0.7-2.5-1.2-3.6-1.6
	c-0.4-0.2-0.8-0.3-1.2-0.5l-0.9-0.3c-0.8-0.3-1.6-0.6-2.4-0.8C-49.5,200.4-56,199.4-62.5,199.4L-62.5,199.4z"/>
<path class="st0" d="M-75.6,227.8c2-0.2,4,0.5,5.3,2c1,1.1,1.8,2.3,2.4,3.7c2.2,4.8,3.4,11.6,0.8,15.4c-5.7-1.5-10.5-5.2-13.3-10.3
	c-0.7-1.4-1.1-2.9-1.2-4.5C-81.5,230.8-78.9,228.1-75.6,227.8z M-94.6,254.6c1.3,0.9,2.6,1.8,4.1,2.5c5.2,2.3,11.2,2.1,16.3-0.5
	c-2-5.2-6-9.4-11.2-11.5c-1.5-0.7-3.2-1-4.8-1.1c-0.4,0-0.7,0-1.1,0c-3.3,0.1-5.8,2.9-5.7,6.1C-96.9,251.9-96,253.6-94.6,254.6z
	 M-74.2,266.1c-2.6-1.7-8-1-11.1-1c-1.9,0-3.8,0.4-5.6,1.2c-1.5,0.5-2.9,1.4-4.1,2.5c-2.5,2.2-2.8,6.1-0.6,8.6
	c1.3,1.5,3.3,2.3,5.3,2c1.7,0,3.3-0.4,4.8-1.1C-80.6,276.2-74.9,270.5-74.2,266.1L-74.2,266.1z M-65.5,272.8
	c-5.6,2.1-10.1,6.3-12.5,11.7c-0.7,1.4-1,2.9-1.1,4.4c-0.1,3.5,2.7,6.4,6.2,6.5c1.8,0,3.6-0.7,4.8-2c0.9-1.3,1.7-2.6,2.3-4.1
	C-63.6,284.9-62.7,276.9-65.5,272.8L-65.5,272.8z M-56.9,248.8c5.4-1.6,10-5.5,12.4-10.6c0.7-1.4,1-2.9,1.1-4.5
	c0.1-3.4-2.6-6.3-6-6.5c-2-0.2-4,0.6-5.4,2.1c-0.9,1.3-1.7,2.6-2.4,4.1C-59.3,238.2-60,245-56.9,248.8L-56.9,248.8z M-42.9,289.3
	c0-1.6-0.4-3.1-1.1-4.5c-2.2-5.2-6.5-9.2-11.9-10.9c-2.7,4.9-2.9,10.7-0.8,15.8c0.6,1.4,1.4,2.6,2.3,3.7
	C-50.4,297.5-42.5,294.5-42.9,289.3L-42.9,289.3z M-28.8,268.3c-1.3-0.9-2.6-1.7-4.1-2.3c-1.8-0.7-3.7-1.1-5.6-1.2
	c-3.7-0.3-7.3,0.3-10.7,1.9c2,5.1,6,9.2,11.1,11.3c1.5,0.7,3.2,1,4.8,1.1c3.3,0.4,6.3-2,6.7-5.3C-26.3,271.7-27.2,269.6-28.8,268.3
	L-28.8,268.3z"/>
</svg>
