<?xml version="1.0" encoding="UTF-8" standalone="no"?>
<!-- Created with Inkscape (http://www.inkscape.org/) -->

<svg
   version="1.1"
   id="svg9"
   xml:space="preserve"
   width="168.728"
   height="172.34546"
   viewBox="0 0 168.728 172.34546"
   sodipodi:docname="Qytera-Logo-CMYK.ai"
   inkscape:version="1.1 (c68e22c387, 2021-05-23)"
   xmlns:inkscape="http://www.inkscape.org/namespaces/inkscape"
   xmlns:sodipodi="http://sodipodi.sourceforge.net/DTD/sodipodi-0.dtd"
   xmlns="http://www.w3.org/2000/svg"
   xmlns:svg="http://www.w3.org/2000/svg"><defs
     id="defs13"><clipPath
       clipPathUnits="userSpaceOnUse"
       id="clipPath23"><path
         d="M 0,153.071 H 391.181 V 0 H 0 Z"
         id="path21" /></clipPath></defs><sodipodi:namedview
     id="namedview11"
     pagecolor="#ffffff"
     bordercolor="#666666"
     borderopacity="1.0"
     inkscape:pageshadow="2"
     inkscape:pageopacity="0.0"
     inkscape:pagecheckerboard="0"
     showgrid="false"
     inkscape:zoom="3.2727818"
     inkscape:cx="232.06558"
     inkscape:cy="78.679245"
     inkscape:window-width="1920"
     inkscape:window-height="1001"
     inkscape:window-x="-9"
     inkscape:window-y="-9"
     inkscape:window-maximized="1"
     inkscape:current-layer="g15" /><g
     id="g15"
     inkscape:groupmode="layer"
     inkscape:label="Qytera-Logo-CMYK"
     transform="matrix(1.3333333,0,0,-1.3333333,-14.453066,186.39199)"
     style="display:inline"><g
       id="g17"><g
         id="g19"
         clip-path="url(#clipPath23)"><g
           id="g25"
           transform="translate(74.1128,13.249)" /><g
           id="g29"
           transform="translate(145.3784,87.0176)"><path
             d="m 0,0 v -31.717 c 0,-12.072 5.926,-19.095 17.12,-22.057 v -19.995 h 9.658 v 19.995 c 11.194,2.962 17.12,9.985 17.12,22.057 V 0 h -9.657 v -31.606 c 0,-7.244 -4.171,-12.951 -12.292,-12.951 -8.121,0 -12.291,5.707 -12.291,12.951 L 9.658,0 Z"
             style="fill:#617d78;fill-opacity:1;fill-rule:nonzero;stroke:none"
             id="path31" /></g><g
           id="g33"
           transform="translate(229.7729,87.0176)"><path
             d="m 0,0 h -18.876 v 13.169 h -9.658 v -48.836 c 0,-10.426 5.707,-17.011 15.584,-17.011 H 0 v 9.219 h -11.633 c -4.939,0 -7.243,1.646 -7.243,6.584 V -9.219 H 0 Z"
             style="fill:#617d78;fill-opacity:1;fill-rule:nonzero;stroke:none"
             id="path35" /></g><g
           id="g37"
           transform="translate(291.2661,57.5361)"><path
             d="m 0,0 c 0.629,11.32 -3.431,20.975 -14.181,26.934 -12.766,7.076 -29.328,3.457 -37.202,-10.749 -7.875,-14.206 -2.167,-30.168 10.599,-37.245 13.246,-7.342 28.144,-3.554 35.861,8.104 l -7.957,5.791 c -6.41,-7.489 -13.453,-11.365 -23.434,-5.831 -8.736,4.841 -11.453,14.88 -6.239,24.286 5.215,9.406 15.168,12.422 23.903,7.581 5.183,-2.873 6.731,-5.739 8.014,-10.216 L -39.695,8.601 c 0,0 -0.923,-1.451 -1.424,-4.087 -0.528,-2.783 -0.245,-4.56 -0.245,-4.56 z"
             style="fill:#617d78;fill-opacity:1;fill-rule:nonzero;stroke:none"
             id="path39" /></g><g
           id="g41"
           transform="translate(297.1558,34.3398)"><path
             d="m 0,0 h 9.658 v 24.583 c 0,14.267 5.488,19.974 14.816,19.974 H 25.9 v 9.218 H 23.705 C 17.23,53.775 12.73,51.8 9.438,46.642 H 9.22 v 6.036 H 0 Z"
             style="fill:#617d78;fill-opacity:1;fill-rule:nonzero;stroke:none"
             id="path43" /></g><g
           id="g45"
           transform="translate(379.4653,34.3398)"><path
             d="m 0,0 v 28.753 c 0,15.145 -10.316,25.022 -26.558,25.022 -16.901,0 -27.217,-11.852 -27.217,-26.887 0,-15.474 10.755,-27.985 25.9,-27.985 6.694,0 10.425,2.194 14.267,5.048 v 11.413 c -3.293,-4.17 -7.792,-7.243 -13.28,-7.243 -10.096,0 -17.23,8.231 -17.23,17.998 0,9.987 6.695,18.438 17.34,18.438 8.78,0 17.12,-5.049 17.12,-14.926 L -9.658,0 Z"
             style="fill:#617d78;fill-opacity:1;fill-rule:nonzero;stroke:none"
             id="path47" /></g><g
           id="g49"
           transform="translate(119.7173,77.9629)" /></g></g><path
       d="m 0,0 c 34.945,0 63.273,28.328 63.273,63.273 0,34.944 -28.328,63.272 -63.273,63.272 -34.944,0 -63.273,-28.328 -63.273,-63.272 C -63.273,28.328 -34.944,0 0,0"
       style="fill:#580e24;fill-opacity:1;fill-rule:nonzero;stroke:none"
       id="path27"
       transform="translate(74.1128,13.248998)" /><path
       d="m 0,0 c 0,24.914 -20.42,45.111 -45.609,45.111 -25.189,0 -45.609,-20.197 -45.609,-45.111 0,-22.939 17.327,-41.838 39.735,-44.694 v -22.734 h 11.688 v 22.724 C -17.358,-41.874 0,-22.961 0,0 m -12.223,-0.04 c 0,-16.819 -11.909,-30.768 -27.572,-33.597 v 18.427 h -11.688 v -18.427 c -15.664,2.829 -27.572,16.778 -27.572,33.597 0,18.862 14.961,34.152 33.416,34.152 18.455,0 33.416,-15.29 33.416,-34.152"
       style="fill:#ffffff;fill-opacity:1;fill-rule:nonzero;stroke:none"
       id="path51"
       transform="translate(119.7173,77.962899)" /></g></svg>
