<?xml version="1.0" encoding="UTF-8"?>
<!-- Created with Inkscape (http://www.inkscape.org/) -->
<svg id="svg2" version="1.1" width="1203.715" height="1201.7013" viewBox="0 0 1203.715 1201.7013">
   <defs id="defs6">
      <linearGradient x1="0" y1="0" x2="1" y2="0" gradientUnits="userSpaceOnUse" gradientTransform="matrix(-429.91214,-278.35153,-278.35153,429.91214,999.97559,477.61771)" spreadMethod="pad" id="linearGradient11">
         <stop style="stop-opacity:1;stop-color:currentColor" offset="0" id="stop7" />
         <stop style="stop-opacity:1;stop-color:currentColor" offset="0.0938968" id="stop8" />
         <stop style="stop-color:#ffffff;stop-opacity:0;" offset="0.84297329" id="stop9" />
         <stop style="stop-color:#ffffff;stop-opacity:0;" offset="0.97761184" id="stop10" />
         <stop style="stop-color:#ffffff;stop-opacity:0;" offset="1" id="stop11" />
      </linearGradient>
   </defs>
   <g id="g10" transform="matrix(1.25,0,0,-1.25,0,1201.7013)">
      <path d="m 338.5078,579.8887 c 38.884,0 70.517,-20.743 86.783,-56.914 l 1.262,-2.806 65.246,22.193 -1.368,3.336 c -25.27,61.612 -83.485,99.883 -151.923,99.883 -48.142,0 -87.257,-15.417 -119.59,-47.126 -32.102,-31.485 -48.379,-71.124 -48.379,-117.815 0,-46.284 16.277,-85.714 48.379,-117.198 32.327,-31.71 71.443,-47.126 119.59,-47.126 68.444,0 126.653,38.271 151.923,99.878 l 1.368,3.336 -65.345,22.226 -1.213,-2.945 c -14.573,-35.575 -46.995,-56.809 -86.733,-56.809 -27.062,0 -49.95,9.457 -68.03,28.115 -18.301,18.902 -27.581,42.628 -27.581,70.523 0,28.098 9.038,51.378 27.581,71.129 18.08,18.664 40.968,28.12 68.03,28.12" style="stroke:none;fill-rule:nonzero;fill-opacity:1;fill:currentColor;" id="path22" clip-path="none" />
      <path id="path106" style="stroke:none;fill:currentColor;" d="M 481.54844 961.36104 C 465.53343 961.36104 449.51537 960.48877 433.60313 958.91729 L 433.59375 959.01573 C 430.47239 958.7081 427.40483 958.24495 424.30313 957.87979 C 421.01368 957.49081 417.72246 957.13083 414.44688 956.6751 C 409.70039 956.01932 405.00016 955.24252 400.30313 954.45323 C 398.70085 954.18127 397.07886 953.98345 395.48125 953.69542 L 395.49219 953.63448 C 167.52027 912.98522 1.2126584e-13 716.07105 0 480.68135 C 0 435.43739 6.3100168 390.99791 18.640625 348.0626 L 18.565625 348.04073 C 19.539255 344.64774 20.643806 341.3182 21.689063 337.95948 C 22.475361 335.43362 23.208611 332.89441 24.0375 330.37979 C 25.633503 325.53787 27.355329 320.76037 29.098438 315.99385 C 29.684004 314.39087 30.193752 312.76684 30.796875 311.16885 L 30.815625 311.17666 C 100.72882 126.20036 280.69339 0.050800489 481.29219 0.0001025 L 481.30625 0.0001025 L 481.41406 0.0001025 L 481.41406 0.0032275 C 488.12006 0.0032275 494.80033 0.13960304 501.44531 0.4126025 C 535.85725 1.8285997 566.56935 23.420354 579.67031 55.36729 L 586.73438 72.507915 L 586.89375 72.895415 L 598.77031 101.71573 L 598.7375 101.72198 L 819.6875 639.50479 L 747.32188 639.50479 L 654.2875 403.91417 L 560.65625 639.50479 L 484.06406 639.50479 L 615.39062 317.93291 L 531.77656 115.04854 L 519.73906 85.840727 L 517.68281 80.851665 C 514.46483 73.005681 507.01173 67.721227 498.69375 67.378227 C 492.95777 67.142229 487.19242 67.02354 481.39844 67.02354 C 307.73365 67.027316 152.07203 176.79064 92.598438 337.41104 C 90.865305 342.09572 89.187722 346.79619 87.629688 351.52979 C 87.031276 353.34828 86.500501 355.19922 85.926563 357.02979 C 73.424052 396.89039 67.01875 438.36572 67.01875 480.68135 C 67.01875 684.6202 213.14794 854.98752 411.375 888.36573 C 415.49055 889.06579 419.61482 889.7363 423.7625 890.3126 C 426.472 890.68645 429.20675 890.98838 431.93438 891.31104 C 448.35614 893.26254 464.95039 894.3376 481.54844 894.3376 C 664.98587 894.3376 824.26299 776.81769 877.88281 601.90323 L 941.9625 621.54698 C 879.65068 824.79935 694.62578 961.36104 481.54844 961.36104 z " />
      <path d="m 869.064,627.593 c 17.843,-46.861 26.89,-96.289 26.89,-146.912 v 0 c 0,-183.386 -117.959,-342.444 -293.526,-395.797 v 0 l 19.49,-64.126 C 825.914,82.751 962.972,267.58 962.972,480.681 v 0 c 0,58.803 -10.52,116.254 -31.272,170.76 v 0 z" style="fill:url(#linearGradient11);stroke:none" id="path1" mask="none" clip-path="url(#clipPath34)" />
   </g>
</svg>
