<?xml version="1.0" encoding="UTF-8" standalone="no"?>
<!-- Generator: Adobe Illustrator 19.0.0, SVG Export Plug-In . SVG Version: 6.00 Build 0)  -->

<svg
   xmlns:dc="http://purl.org/dc/elements/1.1/"
   xmlns:cc="http://creativecommons.org/ns#"
   xmlns:rdf="http://www.w3.org/1999/02/22-rdf-syntax-ns#"
   xmlns:svg="http://www.w3.org/2000/svg"
   xmlns="http://www.w3.org/2000/svg"
   xmlns:sodipodi="http://sodipodi.sourceforge.net/DTD/sodipodi-0.dtd"
   xmlns:inkscape="http://www.inkscape.org/namespaces/inkscape"
   version="1.1"
   id="layer"
   x="0px"
   y="0px"
   viewBox="-153 -46 154.83781 154.83781"
   xml:space="preserve"
   inkscape:version="0.91 r13725"
   sodipodi:docname="smartbear-cucumber.svg"
   width="154.83781"
   height="154.83781"><metadata
   id="metadata17"><rdf:RDF><cc:Work
       rdf:about=""><dc:format>image/svg+xml</dc:format><dc:type
         rdf:resource="http://purl.org/dc/dcmitype/StillImage" /><dc:title></dc:title></cc:Work></rdf:RDF></metadata><defs
   id="defs15" /><sodipodi:namedview
   pagecolor="#ffffff"
   bordercolor="#666666"
   borderopacity="1"
   objecttolerance="10"
   gridtolerance="10"
   guidetolerance="10"
   inkscape:pageopacity="0"
   inkscape:pageshadow="2"
   inkscape:window-width="1920"
   inkscape:window-height="1137"
   id="namedview13"
   showgrid="false"
   fit-margin-top="0"
   fit-margin-left="0"
   fit-margin-right="0"
   fit-margin-bottom="0"
   inkscape:zoom="1.4478528"
   inkscape:cx="160.90849"
   inkscape:cy="72.918615"
   inkscape:window-x="-8"
   inkscape:window-y="-8"
   inkscape:window-maximized="1"
   inkscape:current-layer="layer" />
<style
   type="text/css"
   id="style3">
	.st0{fill:#173647;}
	.st1{fill:#23D96C;}
</style>



<g
   id="g4145"
   transform="translate(9.5346063,5.9747931e-6)"><path
     style="fill:#23d96c"
     inkscape:connector-curvature="0"
     id="path7"
     d="m -52.162192,-33.8622 c -1.2,-0.7 -2.4,-1.4 -3.6,-2 -1.3,-0.6 -2.5,-1.2 -3.9,-1.7 -0.4,-0.2 -0.8,-0.3 -1.2,-0.5 -1.1,-0.4 -2.3,-0.9 -3.5,-1.2 -34,-11.4 -70.799998,7 -82.199998,40.999999 -11.4,34.000001 7,70.800001 41,82.200001 2.7,0.9 5.599998,1.7 8.399998,2.2 l 0,18.60001 c 39,-5.90001 73.6,-36.70001 76.2,-77.20001 1.6,-24.400001 -10.6,-49.3 -31.2,-61.4 z"
     class="st1" /><path
     style="fill:#173647"
     inkscape:connector-curvature="0"
     id="path9"
     d="m -100.56219,108.83781 0,-19.80001 c -36.8,-8.9 -59.4,-45.9 -50.5,-82.600001 8.9,-36.799999 45.9,-59.399999 82.599998,-50.499999 1.8,0.4 3.5,0.9 5.2,1.5 0.9,0.3 1.9,0.6 2.8,1 l 0.8,0.3 c 0.6,0.2 1,0.4 1.4,0.6 1.2,0.5 2.5,1 4,1.8 1.3,0.7 2.6,1.4 3.9,2.1 21.4,12.6 34.6,38.499999 33,64.6 -2.6,40.1 -35.9,74.00001 -79.2,80.50001 l -3.999998,0.5 z m 15.999998,-147.90001 0,0 c -33.999998,-0.2 -61.599998,27.2 -61.799998,61.1 -0.1,29.6 20.9,55.1 49.899998,60.6 l 2.8,0.6 0,17.30001 c 38.1,-7.40001 66.9,-37.70001 69.2,-73.30001 1.5,-23.500001 -10.4,-46.9 -29.5,-58.1 l 0,0 c -1.1,-0.7 -2.2,-1.3 -3.4,-1.9 -1.4,-0.7 -2.5,-1.2 -3.6,-1.6 -0.4,-0.2 -0.8,-0.3 -1.2,-0.5 l -0.9,-0.3 c -0.8,-0.3 -1.6,-0.6 -2.4,-0.8 -6.1,-2.1 -12.6,-3.1 -19.1,-3.1 l 0,0 z"
     class="st0" /><path
     style="fill:#173647"
     inkscape:connector-curvature="0"
     id="path11"
     d="m -97.662192,-10.6622 c 2,-0.2 4,0.5 5.3,1.999999 1,1.1 1.8,2.3 2.4,3.7 2.2,4.79999996 3.4,11.6 0.8,15.400001 -5.7,-1.500001 -10.5,-5.200001 -13.299998,-10.30000104 -0.7,-1.39999996 -1.1,-2.89999996 -1.2,-4.49999996 0.1,-3.3 2.7,-5.999999 5.999998,-6.299999 z m -18.999998,26.8 c 1.3,0.9 2.6,1.8 4.1,2.5 5.2,2.3 11.2,2.1 16.299998,-0.5 -2,-5.2 -5.999998,-9.400001 -11.199998,-11.500001 -1.5,-0.7 -3.2,-1 -4.8,-1.1 -0.4,0 -0.7,0 -1.1,0 -3.3,0.1 -5.8,2.9 -5.7,6.100001 0.1,1.8 1,3.5 2.4,4.5 z m 20.399998,11.5 c -2.6,-1.7 -7.999998,-1 -11.099998,-1 -1.9,0 -3.8,0.4 -5.6,1.2 -1.5,0.5 -2.9,1.4 -4.1,2.5 -2.5,2.2 -2.8,6.1 -0.6,8.6 1.3,1.5 3.3,2.3 5.3,2 1.7,0 3.3,-0.4 4.8,-1.1 4.9,-2.1 10.599998,-7.8 11.299998,-12.2 l 0,0 z m 8.7,6.7 c -5.6,2.1 -10.1,6.3 -12.499998,11.7 -0.7,1.4 -1,2.9 -1.1,4.4 -0.1,3.5 2.699998,6.4 6.199998,6.5 1.8,0 3.6,-0.7 4.8,-2 0.9,-1.3 1.7,-2.6 2.3,-4.1 2.2,-4.4 3.1,-12.4 0.3,-16.5 l 0,0 z m 8.6,-24 c 5.4,-1.600001 10,-5.500001 12.4,-10.60000104 0.7,-1.39999996 1,-2.89999996 1.1,-4.49999996 0.1,-3.4 -2.6,-6.299999 -6,-6.499999 -2,-0.2 -4,0.6 -5.4,2.099999 -0.9,1.3 -1.7,2.6 -2.4,4.1 -2.1,4.79999996 -2.8,11.6 0.3,15.400001 l 0,0 z m 14,40.5 c 0,-1.6 -0.4,-3.1 -1.1,-4.5 -2.2,-5.2 -6.5,-9.2 -11.9,-10.9 -2.7,4.9 -2.9,10.7 -0.8,15.8 0.6,1.4 1.4,2.6 2.3,3.7 4,4.1 11.9,1.1 11.5,-4.1 l 0,0 z m 14.1,-21 c -1.3,-0.9 -2.6,-1.7 -4.1,-2.3 -1.8,-0.7 -3.7,-1.1 -5.6,-1.2 -3.7,-0.3 -7.3,0.3 -10.7,1.9 2,5.1 6,9.2 11.1,11.3 1.5,0.7 3.2,1 4.8,1.1 3.3,0.4 6.3,-2 6.7,-5.3 0.3,-2.1 -0.6,-4.2 -2.2,-5.5 l 0,0 z"
     class="st0" /></g>
</svg>